<?xml version="1.0" encoding="UTF-8"?>
<svg id="Layer_1" data-name="Layer 1" xmlns="http://www.w3.org/2000/svg" viewBox="0 0 3755 871.5">
  <g>
    <path class="cls-1" fill='#003049' d="m1288.93,227.16c0,27.58-8.62,50.44-25.85,68.57-19.64,20.83-54.11,31.25-103.41,31.25-3.75,0-9.14-.08-16.19-.22h-15.96c-55.3,0-88.2-1.12-98.69-3.37-4.35-.9-6.52-3.22-6.52-6.97,0-16.04.93-40.31,2.81-72.84,1.87-32.52,2.81-56.88,2.81-73.06,0-17.38-.9-50.06-2.7-98.02-.45-12.29-1.27-30.72-2.47-55.3l-.22-3.15c-.15-2.85,2.21-4.57,7.08-5.17,4.87-.6,22.22-.9,52.04-.9,47.81,0,75.76.15,83.86.45,36.87,1.35,64.07,7.35,81.61,17.98,23.23,14.24,34.85,38.3,34.85,72.17,0,8.85-2.7,18.21-8.09,28.1-3.9,7.05-8.99,14.09-15.29,21.13-5.55,6.15-8.32,8.99-8.32,8.54,0,1.05,1.95,2.7,5.85,4.95,10.49,6,18.73,15.51,24.73,28.55,5.4,11.69,8.09,24.13,8.09,37.32Zm-96.67-126.57c0-12.89-6.45-21.43-19.33-25.63-7.19-2.25-19.04-3.37-35.52-3.37s-24.28,1.2-24.28,3.6c0,2.85-.26,7.16-.79,12.93-.53,5.77-.79,10.08-.79,12.93,0,14.99,1.27,23.38,3.82,25.18,1.65,1.35,11.16,2.02,28.55,2.02,32.22,0,48.33-9.22,48.33-27.65Zm6.74,125.67c0-13.49-5.62-22.63-16.86-27.43-7.19-3-18.88-4.5-35.07-4.5-19.33,0-29.83.71-31.47,2.14-1.65,1.43-2.47,10.6-2.47,27.54s.97,27.47,2.92,29.34c1.95,1.88,12.74,2.81,32.37,2.81,16.19,0,27.57-1.27,34.17-3.82,10.94-4.35,16.41-13.04,16.41-26.08Z"/>
    <path class="cls-1" fill='#003049' d="m1532.18,213.67c0,34.17-10.45,61.9-31.36,83.18-20.91,21.28-48.37,31.92-82.39,31.92s-60.1-10.49-81.38-31.47c-21.28-20.98-31.92-47.96-31.92-80.93,0-34.77,10.19-62.98,30.57-84.64,20.38-21.66,47.96-32.49,82.73-32.49s61.3,10.6,82.28,31.81c20.98,21.21,31.47,48.75,31.47,82.62Zm-73.74,0c0-11.84-3.67-22.29-11.02-31.36-7.35-9.07-16.86-13.6-28.55-13.6s-21.58,4.65-29.23,13.94c-7.19,8.69-10.79,19.04-10.79,31.02s3.6,22.56,10.79,31.25c7.64,9.29,17.38,13.94,29.23,13.94s21.36-4.64,29-13.94c7.04-8.69,10.57-19.11,10.57-31.25Z"/>
    <path class="cls-1" fill='#003049' d="m1785.32,211.87c0,11.54.67,28.7,2.02,51.48,1.35,22.78,2.02,39.87,2.02,51.26,0,6-2.62,9.22-7.87,9.67-18.59,1.35-39.87,2.02-63.85,2.02-2.85,0-4.76-4.31-5.73-12.93-.98-8.62-2.14-13-3.48-13.15-1.2.6-2.78,1.88-4.72,3.82-16.79,16.94-34.77,25.4-53.96,25.4-29.23,0-53.43-11.54-72.61-34.62-18.14-21.58-27.2-47.36-27.2-77.34,0-34.62,9.36-62.5,28.1-83.63,19.48-21.88,46.16-32.82,80.03-32.82,23.53,0,42.11,8.24,55.75,24.73.6.75,1.12,1.12,1.57,1.12,1.35,0,2.88-3.63,4.61-10.9,1.72-7.27,3.78-10.9,6.18-10.9,5.54,0,16.11,1.57,31.7,4.72,14.84,3,25.48,5.55,31.92,7.64,2.25.9,3.37,2.1,3.37,3.6,0,.6-.22,2.17-.67,4.72-4.8,27.13-7.19,55.83-7.19,86.1Zm-72.39,1.35c0-12.74-4.01-23.27-12.03-31.59-8.02-8.32-18.47-12.48-31.36-12.48s-23.31,4.12-31.25,12.36c-7.95,8.24-11.92,18.81-11.92,31.7,0,12.14,4.19,22.56,12.59,31.25,8.39,8.69,18.58,13.04,30.57,13.04,12.74,0,23.16-4.16,31.25-12.48,8.09-8.32,12.14-18.92,12.14-31.81Z"/>
    <path class="cls-1" fill='#003049' d="m1979.11,184.22c0,5.85-3.22,8.77-9.67,8.77-2.85,0-7.01-.19-12.48-.56-5.47-.37-9.55-.56-12.25-.56-12.44,0-20.91,1.95-25.4,5.85-4.5,3.9-6.74,11.77-6.74,23.61,0,6.45.11,16.23.34,29.34.22,13.12.34,22.9.34,29.34,0,4.35.3,10.83.9,19.45.6,8.62.9,15.03.9,19.22,0,3.6-2.47,5.62-7.42,6.07-7.19.6-18.21.9-33.05.9s-25.63-.45-34.17-1.35c-4.95-.6-7.42-3.07-7.42-7.42,0-11.99.07-29.94.22-53.84.15-23.9.22-41.85.22-53.84,0-35.22-3.22-64.22-9.67-87-.3-1.35-.45-2.47-.45-3.37,0-2.25,1.12-3.74,3.37-4.5,8.24-.9,20.31-2.55,36.2-4.95,23.68-4.64,35.89-6.97,36.64-6.97,2.7,0,4.42,4.72,5.17,14.16.75,9.44,2.1,14.16,4.05,14.16-2.1,0,4.05-3.93,18.43-11.8,14.39-7.87,28.25-11.8,41.59-11.8,8.39,0,12.59,1.8,12.59,5.4,0,4.35-.45,10.49-1.35,18.44-.9,8.54-1.43,14.69-1.57,18.43,0,4.35.07,10.12.22,17.31.3,8.85.45,14.69.45,17.54Z"/>
    <path class="cls-1" fill='#003049' d="m2243.72,5.27c0-3.29-.6,1.65-1.8,14.84-1.65,16.64-2.92,37.92-3.82,63.85-1.2,29.38-1.8,62.8-1.8,100.27,0,61.9,1.72,105.96,5.17,132.19.3,2.85.45,4.65.45,5.4,0,1.65-1.12,2.62-3.37,2.92-5.4.75-25.26,1.12-59.58,1.12-8.09,0-12.74-1.57-13.94-4.72-.3-5.69-.6-11.39-.9-17.09-.15-1.2-.75-2.4-1.8-3.6-.9.45-2.02,1.35-3.37,2.7-16.19,15.89-36.42,23.83-60.7,23.83-31.62,0-56.96-11.09-75.99-33.27-18.14-21.13-27.2-47.81-27.2-80.03s8.92-59.58,26.75-80.71c18.88-22.48,44.36-33.72,76.44-33.72,22.63,0,40.24,7.19,52.83,21.58,2.1,2.4,3.6,3.6,4.5,3.6,1.35,0,2.02-1.95,2.02-5.85,0-11.54-.3-28.78-.9-51.71-.6-22.93-.9-40.09-.9-51.48,0-4.35,1.2-6.82,3.6-7.42,9.59-.45,22.78-1.35,39.57-2.7,29.97-3.74,43.24-5.62,39.79-5.62,3.29,0,4.95,1.88,4.95,5.62Zm-84.75,206.6c0-11.84-4.12-22.22-12.36-31.14-8.24-8.92-18.21-13.38-29.9-13.38-12.29,0-22.07,4.46-29.34,13.38-7.27,8.92-10.9,19.6-10.9,32.04s3.67,22.41,11.02,30.8c7.49,8.99,17.23,13.49,29.23,13.49s22.03-4.5,30.12-13.49,12.14-19.56,12.14-31.7Z"/>
    <path class="cls-1" fill='#003049' d="m2689.52,317.09c.3,4.05-1.8,6.07-6.29,6.07-2.85,0-11.05-1.65-24.62-4.95-13.57-3.29-21.92-5.54-25.07-6.74-31.33,12.29-61.37,18.43-90.15,18.43-46.31,0-84.3-15.43-113.98-46.31-29.38-30.42-44.06-68.87-44.06-115.33s14.24-86.93,42.71-118.25c29.37-32.37,67.52-48.56,114.43-48.56,22.78,0,44.21,4.35,64.3,13.04,21.73,9.59,38.82,23.08,51.26,40.47,2.55,3.6,3.82,6.15,3.82,7.64,0,4.8-6.71,15.55-20.12,32.26-13.42,16.71-22.07,25.07-25.97,25.07-.9,0-4.35-3.07-10.34-9.22-7.34-7.34-14.84-13.04-22.48-17.09-11.39-6.14-23.98-9.22-37.77-9.22-22.48,0-40.32,8.4-53.51,25.18-12.29,15.44-18.43,34.7-18.43,57.78,0,24.43,6.37,43.77,19.11,58,13.19,14.69,31.85,22.03,55.98,22.03,15.29,0,32.37-3.82,51.26-11.47-.45-4.95-1.8-17.54-4.05-37.77-1.95-15.59-2.92-28.18-2.92-37.77,0-2.85.97-4.57,2.92-5.17.75-.3,1.95-.45,3.6-.45,4.35,0,10.9.41,19.67,1.24,8.77.83,15.4,1.24,19.9,1.24,4.79,0,11.99-.34,21.58-1.01,9.59-.67,16.78-1.01,21.58-1.01,3.74,0,5.62,2.47,5.62,7.42,0,7.19-.41,18.06-1.24,32.6-.83,14.54-1.24,25.4-1.24,32.6,0,19.33,1.42,48.26,4.27,86.78l.22,2.47Z"/>
    <path class="cls-1" fill='#003049' d="m2945.36,211.87c0,11.54.67,28.7,2.02,51.48,1.35,22.78,2.02,39.87,2.02,51.26,0,6-2.62,9.22-7.87,9.67-18.59,1.35-39.87,2.02-63.85,2.02-2.85,0-4.76-4.31-5.73-12.93-.98-8.62-2.14-13-3.48-13.15-1.2.6-2.78,1.88-4.72,3.82-16.79,16.94-34.77,25.4-53.96,25.4-29.23,0-53.43-11.54-72.61-34.62-18.14-21.58-27.2-47.36-27.2-77.34,0-34.62,9.36-62.5,28.1-83.63,19.48-21.88,46.16-32.82,80.03-32.82,23.53,0,42.11,8.24,55.75,24.73.6.75,1.12,1.12,1.57,1.12,1.35,0,2.88-3.63,4.61-10.9,1.72-7.27,3.78-10.9,6.18-10.9,5.54,0,16.11,1.57,31.7,4.72,14.84,3,25.48,5.55,31.92,7.64,2.25.9,3.37,2.1,3.37,3.6,0,.6-.22,2.17-.67,4.72-4.8,27.13-7.19,55.83-7.19,86.1Zm-72.39,1.35c0-12.74-4.01-23.27-12.03-31.59-8.02-8.32-18.47-12.48-31.36-12.48s-23.31,4.12-31.25,12.36c-7.95,8.24-11.92,18.81-11.92,31.7,0,12.14,4.19,22.56,12.59,31.25,8.39,8.69,18.58,13.04,30.57,13.04,12.74,0,23.16-4.16,31.25-12.48,8.09-8.32,12.14-18.92,12.14-31.81Z"/>
    <path class="cls-1" fill='#003049' d="m3349.35,315.96c0,5.25-2.25,8.17-6.74,8.77-4.5.6-15.59.9-33.27.9s-29.68-.45-34.17-1.35-6.74-4.57-6.74-11.02c0-6.89.22-17.2.67-30.91.45-13.71.67-24.02.67-30.91,0-26.23-.3-44.89-.9-55.98-.9-17.83-9.37-26.75-25.4-26.75-7.05,0-14.05,2.96-21.02,8.88-6.97,5.92-10.83,12.48-11.58,19.67-.6,6.29-.9,24.73-.9,55.3,0,7.05.23,17.73.67,32.04.45,14.31.67,25.07.67,32.26,0,4.95-2.17,7.42-6.52,7.42h-68.12c-4.2,0-6.29-3.07-6.29-9.22,0-7.04.23-17.61.67-31.7.45-14.09.67-24.73.67-31.92,0-5.54-.15-13.94-.45-25.18-.3-11.24-.45-19.71-.45-25.4,0-21.43-8.17-32.15-24.5-32.15-6.6,0-13.71,2.55-21.36,7.64-8.4,5.55-12.59,11.39-12.59,17.54,0,13.64.07,34.02.23,61.15.15,27.13.22,47.44.22,60.92,0,3.75-.45,6.07-1.35,6.97-.9.9-3.22,1.5-6.97,1.8-6.74.6-17.39.9-31.92.9-9.44,0-20.16-.45-32.15-1.35-3.6-.3-5.73-.82-6.41-1.57-.67-.75-1.01-3-1.01-6.74,0-11.99.07-29.94.22-53.84.15-23.9.22-41.85.22-53.84,0-24.58-1.8-52.23-5.4-82.96-.3-1.8-.45-3.15-.45-4.05,0-2.55,1.05-4.27,3.15-5.17,3.29-1.35,9.52-2.47,18.66-3.37,11.24-1.05,17.91-1.72,20.01-2.02,1.5-.3,7.42-1.87,17.76-4.72,7.34-2.1,13.26-3.15,17.76-3.15,2.84,0,4.34,5.21,4.5,15.62.15,10.42.75,15.62,1.8,15.62,1.5-.6,3.22-1.65,5.17-3.15,13.49-10.49,24.13-17.68,31.92-21.58,11.54-5.54,24.05-8.32,37.54-8.32s26.08,3.07,36.87,9.22c12.14,6.9,20.01,16.56,23.61,29,7.94-10.79,18.88-19.86,32.82-27.2,13.94-7.34,27.5-11.02,40.69-11.02,19.78,0,35.89,4.57,48.33,13.71,14.09,10.34,21.13,25.1,21.13,44.29,0,7.95-.22,19.9-.67,35.86-.45,15.96-.67,27.92-.67,35.86,0,9.44.22,23.64.67,42.6.45,18.96.67,33.16.67,42.6Z"/>
    <path class="cls-1" fill='#003049' d="m3597.99,202.21c0,15.14-4.87,23.76-14.61,25.85-1.65.3-17.16,1.95-46.54,4.95-17.69,1.95-44.06,4.27-79.13,6.97,2.1,9.74,8.47,17.16,19.11,22.26,8.69,4.2,18.58,6.29,29.68,6.29,13.34,0,26.75-3.6,40.24-10.79,5.69-3.6,11.39-7.19,17.09-10.79,3.15,1.5,8.43,9.14,15.85,22.93,7.42,13.79,11.13,22.56,11.13,26.3,0,1.05-1.12,2.77-3.37,5.17-18.29,19.64-46.69,29.45-85.2,29.45-35.67,0-64.45-10.42-86.33-31.25-22.48-21.13-33.72-49.38-33.72-84.75s10.04-62.72,30.12-84.75c20.68-22.78,48.11-34.17,82.28-34.17,28.78,0,53.2,10.49,73.29,31.47,20.08,20.98,30.12,45.94,30.12,74.86Zm-78.68-13.71c0-9.29-3.3-17.46-9.89-24.5-6.6-7.04-14.47-10.57-23.61-10.57s-17.24,3.97-23.38,11.92c-5.7,7.34-8.54,15.96-8.54,25.85,0,4.05,2.1,6.07,6.29,6.07,11.09,0,28.33-1.72,51.71-5.17,4.95-.75,7.42-1.95,7.42-3.6Z"/>
    <path class="cls-1" fill='#003049' d="m3754.24,142.41c0,1.5-1.12,3.52-3.37,6.07-4.2-1.05-8.4-1.57-12.59-1.57-8.84,0-16.26,1.95-22.26,5.85-7.19,4.5-10.79,10.87-10.79,19.11,0,5.25,3.82,11.92,11.47,20.01,11.54,12.14,18.66,20.31,21.36,24.5,7.64,11.39,11.47,23.61,11.47,36.65,0,7.64-1.5,15.74-4.5,24.28-3.45,9.44-7.79,16.34-13.04,20.68-11.09,9.59-24.06,17.69-38.89,24.28-16.04,6.89-30.8,10.34-44.29,10.34-3,0-9.71-8.13-20.12-24.39-10.42-16.26-15.62-26.19-15.62-29.79,0-1.35.82-2.17,2.47-2.47,10.49-1.95,21.06-3.9,31.7-5.85,13.19-4.19,19.78-11.09,19.78-20.68,0-6.59-3.82-14.24-11.47-22.93-13.64-15.14-20.76-23.16-21.36-24.05-7.64-10.79-11.47-22.18-11.47-34.17,0-22.48,11.39-41.59,34.17-57.33,20.38-13.94,42.19-20.91,65.42-20.91,2.4,0,8.32,8.06,17.76,24.17,9.44,16.11,14.16,25.52,14.16,28.21Z"/>
  </g>
  <g>
    <path class="cls-1" fill='#003049' d="m1388.3,496.05c0,2.52-2.29,3.77-6.86,3.77-17.15,0-43.16-1.48-78.02-4.46-34.87-2.97-60.99-4.46-78.36-4.46-21.95,0-34.75.8-38.41,2.4-8.46,3.89-12.69,14.86-12.69,32.92,0,21.72,5.49,34.07,16.46,37.04,4.57,1.15,11.54,1.71,20.92,1.71,15.77,0,39.38-.86,70.82-2.57,31.43-1.71,55.04-2.57,70.82-2.57,7.54,0,11.32,20.12,11.32,60.36,0,34.98-1.26,55.33-3.77,61.04-1.6,4.12-4.69,6.17-9.26,6.17,2.97,0-4.23-.8-21.6-2.4-24.47-2.28-61.5-3.43-111.11-3.43-16.01,0-25.03.12-27.09.34-11.66,1.83-17.49,6.75-17.49,14.75,0,32.47,1.37,69.85,4.12,112.14,2.28,38.18,3.43,55.21,3.43,51.1,0,5.94-7.2,9.37-21.6,10.29,3.89-.23-6.29-.34-30.52-.34-42.75,0-70.3-1.49-82.65-4.46-6.63-1.6-9.95-5.14-9.95-10.63,0-25.38.86-63.5,2.57-114.37,1.71-50.87,2.57-88.99,2.57-114.37,0-30.18-1.37-68.13-4.12-113.85-4.12-70.64-6.29-108.59-6.52-113.85l-.34-4.12c-.23-5.71,3.2-8.57,10.29-8.57,16.92,0,42.46.34,76.65,1.03,34.18.69,59.84,1.03,76.99,1.03,18.29,0,45.78-1.37,82.47-4.12,36.69-2.74,64.18-4.12,82.48-4.12,11.43,0,17.83,4.69,19.2,14.06,0,9.83.46,24.58,1.37,44.24.46,5.03,1.94,14.75,4.46,29.15,2.28,12.58,3.43,22.29,3.43,29.15Z"/>
    <path class="cls-1" fill='#003049' d="m1837.54,861.96c0,1.6-2.29,2.74-6.86,3.43-8.69,1.37-30.52,2.06-65.5,2.06-29.95,0-50.3-.69-61.04-2.06-5.03-.69-7.89-1.25-8.57-1.71-1.37-.69-2.97-2.97-4.8-6.86-3.43-8.92-8.46-22.17-15.09-39.78-8.92-22.86-22.86-56.58-41.84-101.16-4.12-8.92-13.6-13.83-28.46-14.75,6.86.46-4.92.69-35.32.69-3.43,0-5.14,5.83-5.14,17.49,0,15.55,1.43,38.75,4.29,69.62,2.86,30.86,4.29,54.07,4.29,69.62,0,3.89-1.03,6.17-3.09,6.86-3.2.23-6.4.46-9.6.69-13.49.91-34.52,1.37-63.1,1.37-32.7,0-52.36-.69-58.98-2.06-6.63-1.37-9.94-4.91-9.94-10.63,0-25.15,1.2-63.1,3.6-113.85,2.4-50.75,3.6-88.82,3.6-114.2,0-96.71-2.18-172.15-6.52-226.33l-.34-4.8c-.23-3.88,3.37-6.52,10.8-7.89,7.43-1.37,42.35-2.74,104.77-4.12,42.29-.91,76.01-1.37,101.16-1.37,52.13,0,94.65,11.78,127.57,35.32,37.26,26.52,55.9,64.81,55.9,114.88,0,33.38-4.8,60.01-14.4,79.9-9.6,19.89-27.32,39.21-53.15,57.96-5.26,3.66-7.89,7.09-7.89,10.29,0-.23,13.94,28.46,41.84,86.08,27.89,57.61,41.84,89.39,41.84,95.33Zm-144.03-307.61c0-27.89-9.15-47.21-27.43-57.96-14.18-8.23-36.35-12.35-66.53-12.35-21.72,0-33.26,3.32-34.64,9.94-1.37,7.77-2.06,30.18-2.06,67.21,0,5.26.11,13.03.34,23.32.22,10.29.34,17.95.34,22.98,0,1.15,3.65,2.29,10.97,3.43,13.94,2.06,28.58,3.09,43.9,3.09,50.07,0,75.1-19.89,75.1-59.67Z"/>
    <path class="cls-1" fill='#003049' d="m2015.52,611.96c0,26.98.69,67.56,2.06,121.74,1.37,54.18,2.06,94.77,2.06,121.74,0,4.58-1.03,7.43-3.09,8.57-.46.23-3.43.69-8.92,1.37-14.86,1.83-34.75,2.74-59.67,2.74-33.38,0-54.64-.92-63.79-2.74-6.63-1.37-9.95-4.91-9.95-10.63,0,3.66,1.03-16.46,3.09-60.36,4.11-92.59,6.17-153.4,6.17-182.44,0-24.46-.8-61.15-2.4-110.08-1.6-48.92-2.4-85.61-2.4-110.08,0-5.03,2.63-7.54,7.89-7.54,7.08,0,17.77.34,32.06,1.03,14.29.69,24.98,1.03,32.06,1.03s17.54-.34,31.38-1.03c13.83-.69,24.29-1.03,31.38-1.03,6.63,0,9.95,2.52,9.95,7.54,0,24.47-1.32,61.16-3.94,110.08-2.63,48.93-3.94,85.62-3.94,110.08Z"/>
    <path class="cls-1" fill='#003049' d="m2436.64,758.73c0,9.83-1.95,27.9-5.83,54.18-4.12,28.58-7.77,45.61-10.97,51.1-2.74,4.34-6.52,6.52-11.32,6.52-2.06,0-5.49-.34-10.29-1.03-16.69-2.29-65.39-3.43-146.09-3.43-17.61,0-43.78-.12-78.53-.34-34.75-.23-60.82-.34-78.19-.34-7.54,0-11.32-3.31-11.32-9.94,0-25.6,1.43-64.07,4.29-115.4,2.86-51.32,4.29-89.79,4.29-115.4s-1.37-74.64-4.12-145.75c-.69-18.29-1.95-45.61-3.77-81.96l-.34-4.8c-.46-5.26,2.4-7.89,8.57-7.89,16.92,0,42.35.46,76.3,1.37,33.95.92,59.38,1.37,76.3,1.37s41.84-.46,75.45-1.37c33.61-.91,58.75-1.37,75.44-1.37,11.88,0,18.74,4.46,20.58,13.37,1.14,5.26,2.92,21.21,5.32,47.84,2.4,26.64,3.6,42.81,3.6,48.52,0,4.8-2.29,7.2-6.86,7.2-1.37,0-3.77-.11-7.2-.34-60.82-5.03-115.46-7.54-163.92-7.54-12.12,0-19.55,2.86-22.29,8.57-1.15,2.74-1.71,11.55-1.71,26.41s2.28,25.84,6.86,30.86c3.88,4.35,11.32,6.52,22.29,6.52,2.28,0,6.74-.17,13.37-.51,6.63-.34,12.11-.51,16.46-.51,28.81,0,57.96-.8,87.45-2.4,2.51-.23,8.8-.8,18.86-1.71,7.77-.91,13.94-1.37,18.52-1.37,5.49,0,8.23,2.63,8.23,7.89,0-4.8-2.06,12.69-6.17,52.47-1.83,18.29-2.74,36.58-2.74,54.87,0,4.58-3.32,6.86-9.95,6.86l-30.86-3.43c-13.03-1.37-42.75-2.06-89.16-2.06h-36.35c-9.38,0-14.86,2.29-16.46,6.86-.23,1.15-.34,8.23-.34,21.26,0,17.38,1.14,28.58,3.43,33.61,3.88,8.69,18.52,13.84,43.9,15.43-.46,0,16.23,0,50.07,0,12.11,0,30.12-1.08,54.01-3.26,23.89-2.17,41.78-3.26,53.67-3.26,5.03,0,7.54,4.11,7.54,12.35Z"/>
    <path class="cls-1" fill='#003049' d="m2941.09,394.88c0,26.06-1.09,65.22-3.26,117.45-2.18,52.24-3.26,91.51-3.26,117.8v225.99c0,6.17-3.32,9.26-9.94,9.26-5.49,0-13.78.23-24.86.69-11.09.46-19.38.69-24.86.69-5.95,0-14.86-.46-26.75-1.37-11.89-.91-20.81-1.37-26.75-1.37-4.12,0-9.03-3.77-14.75-11.32-16.46-22.17-53.5-71.33-111.11-147.46-15.77-21.26-39.78-52.58-72.02-93.96-.92-1.37-2.63-2.74-5.14-4.12-1.83,1.6-2.74,4.12-2.74,7.54,0,26.52.74,66.3,2.23,119.34,1.48,53.04,2.23,92.82,2.23,119.34,0,8.01-3.09,12-9.26,12h-118.65c-6.63,0-9.94-3.54-9.94-10.63,0-24.69,1.2-61.95,3.6-111.8,2.4-49.84,3.6-87.22,3.6-112.14,0-26.29-1.09-65.61-3.26-117.97-2.18-52.35-3.26-91.56-3.26-117.63,0-5.03,4.46-7.54,13.37-7.54,13.26,0,29.6-.91,49.04-2.74,4.57-.46,13.6-1.94,27.09-4.46,11.43-2.06,20.46-3.09,27.09-3.09,2.74,0,6.97,3.89,12.69,11.66l127.91,175.24c11.43,15.77,28.69,38.87,51.78,69.27,5.71,7.09,10.63,10.63,14.75,10.63,2.97,0,4.46-8.92,4.46-26.75,0-24.01-1.32-60.13-3.94-108.37-2.63-48.24-3.94-84.47-3.94-108.71,0-8.46,2.4-12.69,7.2-12.69,13.72,0,34.41-.57,62.07-1.71,27.66-1.14,48.35-1.71,62.07-1.71,4.34,0,6.52,3.55,6.52,10.63Z"/>
    <path class="cls-1" fill='#003049' d="m3452.4,622.25c0,67.21-21.61,125.51-64.81,174.9-38.18,44.13-91.79,67.33-160.83,69.61-13.26.46-49.73.69-109.4.69-11.2,0-28.07-.34-50.58-1.03-22.52-.69-39.38-1.03-50.58-1.03-6.63,0-9.95-2.63-9.95-7.89,0-25.15.97-62.93,2.92-113.34,1.94-50.41,2.91-88.19,2.91-113.34s-.98-65.67-2.91-118.14c-1.95-52.47-2.92-91.73-2.92-117.8,0-4.8,3.31-7.66,9.95-8.57,16.23-1.83,42.87-2.74,79.9-2.74,70.41,0,116.02,1.03,136.83,3.09,54.18,5.49,96.59,19.2,127.23,41.15,28.81,20.58,51.55,49.38,68.24,86.42,16,34.98,24.01,70.99,24.01,108.02Zm-131.34,0c0-38.63-11.55-70.18-34.64-94.65-23.32-25.38-54.18-38.07-92.59-38.07-35.21,0-52.81,4.69-52.81,14.06,0,13.49-.23,33.78-.69,60.87-.46,27.09-.69,47.38-.69,60.87s.22,33.21.69,59.84c.46,26.64.69,46.7.69,60.18,0,9.83,18.29,14.75,54.87,14.75,39.55,0,70.64-13.14,93.28-39.44,21.26-24.92,31.89-57.73,31.89-98.42Z"/>
    <path class="cls-1" fill='#003049' d="m3739.44,707.64c0,46.41-19.55,86.19-58.64,119.34-34.29,29.27-76.02,47.89-125.17,55.9-1.83.22-3.32.34-4.46.34-5.26,0-16.92-16.06-34.98-48.18-18.06-32.12-27.09-51.72-27.09-58.81,0-2.51,1.71-4.12,5.14-4.8,33.15-7.54,55.09-13.94,65.84-19.2,23.77-11.88,35.67-29.49,35.67-52.81,0-14.86-7.77-31.43-23.32-49.73-26.98-31.09-41.61-48.35-43.9-51.78-15.77-23.77-23.66-50.07-23.66-78.87,0-41.84,19.32-76.59,57.96-104.25,31.55-22.86,70.3-37.72,116.25-44.58,2.51-.23,4.46-.34,5.83-.34,3.43,0,6.17,2.74,8.23,8.23,5.94,16.69,19.77,46.87,41.49,90.53.69,1.37,1.03,2.52,1.03,3.43,0,3.89-2.06,5.83-6.17,5.83-1.83,0-4.92-.34-9.26-1.03-4.35-.69-7.66-1.03-9.95-1.03-16.46,0-30.86,3.77-43.21,11.32-14.86,8.69-22.29,20.81-22.29,36.35,0,13.95,8.23,31.09,24.69,51.44,29.03,36.58,44.24,55.79,45.61,57.61,16.23,25.15,24.35,50.19,24.35,75.1Z"/>
  </g>
  <g>
    <path class="cls-1" fill='#003049' d="m657.55,868.3v-284.83s59.06,21.1,75.93-19.48L366.49,211.01-.5,559.94s12.65,40.57,71.71,8.11v68.98s18.73,231.27,218.17,231.27h368.17Z"/>
    <path class="cls-3" fill='#f77f00' fill-rule='evenodd' d="m663.34,683.11c1.9-45.21-106.33-67.22-111.02-72.38-2.34-2.56,5.42-69.05-53.28-69-58.7-.05-50.94,66.44-53.28,69-4.69,5.15-112.91,27.17-111.01,72.38,1.89,45.21,59.32,21.99,71.57,35.3,10.71,11.65-50.21,86.2-57.03,133.54-2.22,15.43,2.12,18.42,17.11,18.42,27.2,0,53.16-.02,77.08-.02,10.8,0,14.64-6.21,20.22-14.76,12.34-18.94,27.24-49.37,35.35-49.37,8.1,0,23.01,30.44,35.35,49.37,5.57,8.56,9.41,14.76,20.21,14.76,23.91,0,49.88.02,77.08.02,15,0,19.34-2.99,17.11-18.42-6.81-47.34-67.74-121.89-57.03-133.54,12.25-13.3,69.68,9.92,71.57-35.3Z"/>
    <path class="cls-2" fill='#003049' fill-rule='evenodd' d="m992.48,683.11c1.9-45.21-106.33-67.22-111.02-72.38-2.34-2.56,5.42-69.05-53.28-69-58.7-.05-50.94,66.44-53.28,69-4.69,5.15-112.91,27.17-111.01,72.38,1.89,45.21,59.32,21.99,71.57,35.3,10.71,11.65-50.21,86.2-57.03,133.54-2.22,15.43,2.12,18.42,17.11,18.42,27.2,0,53.16-.02,77.08-.02,10.8,0,14.64-6.21,20.22-14.76,12.34-18.94,27.24-49.37,35.35-49.37,8.1,0,23.01,30.44,35.35,49.37,5.57,8.56,9.41,14.76,20.21,14.76,23.91,0,49.88.02,77.08.02,15,0,19.34-2.99,17.11-18.42-6.81-47.34-67.74-121.89-57.03-133.54,12.25-13.3,69.68,9.92,71.57-35.3Z"/>
  </g>
</svg>